<?xml version="1.0" encoding="utf-8"?>
<!-- Generator: Adobe Illustrator 22.1.0, SVG Export Plug-In . SVG Version: 6.00 Build 0)  -->
<svg version="1.1" id="Слой_1" xmlns="http://www.w3.org/2000/svg" xmlns:xlink="http://www.w3.org/1999/xlink" x="0px" y="0px"
	 viewBox="0 0 841.9 188.2" style="enable-background:new 0 0 841.9 188.2;" xml:space="preserve">
<style type="text/css">
	.st0{fill:url(#SVGID_1_);}
	.st1{fill:url(#SVGID_2_);}
	.st2{fill:url(#SVGID_3_);}
	.st3{fill:url(#SVGID_4_);}
	.st4{fill:url(#SVGID_5_);}
	.st5{fill:url(#SVGID_6_);}
</style>
<g>
	
		<linearGradient id="SVGID_1_" gradientUnits="userSpaceOnUse" x1="-70.2838" y1="105.1045" x2="904.5173" y2="105.1045" gradientTransform="matrix(0.9999 -1.701671e-02 1.701671e-02 0.9999 -1.9888 6.9801)">
		<stop  offset="0" style="stop-color:#ED2789"/>
		<stop  offset="0.5513" style="stop-color:#662752;stop-opacity:0.4487"/>
		<stop  offset="1" style="stop-color:#121028;stop-opacity:0"/>
	</linearGradient>
	<path class="st0" d="M-24.8,91.7C0.6,82,23.8,66.6,42.5,47C50,39.2,57,30.5,66.3,24.9S88,17.3,97,23.4
		c15.5,10.5,14.2,39.2,32.3,43.7c4.5,1.1,9.4,0.3,13.8-1.3c19.1-6.7,31.5-24.8,47.9-36.5s44.6-13.8,52.5,4.8
		c4.8,11.2,1.2,27.6,12,33.1c7.8,4,16.8-1.3,23.9-6.5c22-16,44-31.9,66.1-47.9c8.3-6,19.7-12.1,27.9-6c14,10.2-0.9,40.7,15.5,46.2
		c3.5,1.2,7.4,0.5,11-0.4c20.3-4.9,39.6-14.1,56.2-26.9c11-8.5,21.2-18.8,34.3-23.6s30.6-1.6,36.4,11.1c5.8,12.7-1.8,30.4,8.3,40
		c6.8,6.6,18.3,5,26.4,0.1c10.9-6.7,18-18,27.3-26.6s23.9-14.6,34.7-7.9c15.3,9.5,12.1,36.7,28.4,44.5c13.2,6.3,27.9-5.6,35.8-17.9
		c7.9-12.3,14.9-27.3,28.9-31.5c2.6-0.8,5.5-1.1,7.9,0.2c2.5,1.4,3.8,4.2,4.6,6.9c3.8,12.6,3.3,29.6,15.4,34.7
		c9.3,3.9,19.8-2.6,25.9-10.6s10.3-17.7,18.1-24s21.6-7.2,26.3,1.7c2.9,5.6,1.2,12.7,4.1,18.3c4.9,9.2,19.3,7.7,26.8,0.6
		c7.5-7.1,10.7-17.6,16.1-26.4c5.4-8.9,15.3-16.9,25.2-14.1c18.7,33.7,17.5,74.4,15.9,112.9c-0.9,20.8-2.4,43.3-15.8,59.3
		c-13.9,16.5-36.8,21.7-58.2,24.5c-99.8,13.1-200.7-4.2-301.2-7.8c-178.6-6.4-358.1,30.3-535.5,8.4c-11.8-1.5-23.8-3.3-34.3-8.8
		c-19.4-10.2-30.9-33.6-27.3-55.2c3.7-21.6,22.3-39.8,43.9-43.1"/>
</g>
<g>
	
		<linearGradient id="SVGID_2_" gradientUnits="userSpaceOnUse" x1="-62.7156" y1="112.4651" x2="912.0855" y2="112.4651" gradientTransform="matrix(0.9999 -1.701671e-02 1.701671e-02 0.9999 -1.9888 6.9801)">
		<stop  offset="0" style="stop-color:#ED2789"/>
		<stop  offset="0.5513" style="stop-color:#662752;stop-opacity:0.4487"/>
		<stop  offset="1" style="stop-color:#121028;stop-opacity:0"/>
	</linearGradient>
	<path class="st1" d="M-17.1,98.9c25.4-9.7,48.5-25.1,67.3-44.7c7.5-7.8,14.5-16.4,23.7-22.1s21.8-7.6,30.7-1.5
		c15.5,10.5,14.2,39.2,32.3,43.7c4.5,1.1,9.4,0.3,13.8-1.3c19.1-6.7,31.5-24.8,47.9-36.5s44.6-13.8,52.5,4.8
		c4.8,11.2,1.2,27.6,12,33.1c7.8,4,16.8-1.3,23.9-6.5c22-16,44-31.9,66.1-47.9c8.3-6,19.7-12.1,27.9-6c14,10.2-0.9,40.7,15.5,46.2
		c3.5,1.2,7.4,0.5,11-0.4c20.3-4.9,39.6-14.1,56.2-26.9c11-8.5,21.2-18.8,34.3-23.6c13.1-4.8,30.6-1.6,36.4,11.1
		c5.8,12.7-1.8,30.4,8.3,40c6.8,6.6,18.3,5,26.4,0.1c10.9-6.7,18-18,27.3-26.6s23.9-14.6,34.7-7.9c15.3,9.5,12.1,36.7,28.4,44.5
		c13.2,6.3,27.9-5.6,35.8-17.9s14.9-27.3,28.9-31.5c2.6-0.8,5.5-1.1,7.9,0.2c2.5,1.4,3.8,4.2,4.6,6.9c3.8,12.6,3.3,29.6,15.4,34.7
		c9.3,3.9,19.8-2.6,25.9-10.6s10.3-17.7,18.1-24s21.6-7.2,26.3,1.7c2.9,5.6,1.2,12.7,4.1,18.3c4.9,9.2,19.3,7.7,26.8,0.6
		s10.7-17.6,16.1-26.4c5.4-8.9,15.3-16.9,25.2-14.1c18.7,33.7,17.5,74.4,15.9,112.9c-0.9,20.8-2.4,43.3-15.8,59.3
		c-13.9,16.5-36.8,21.7-58.2,24.5c-99.8,13.1-200.7-4.2-301.2-7.8c-178.6-6.4-358.1,30.3-535.5,8.4c-11.8-1.5-23.8-3.3-34.3-8.8
		c-19.4-10.2-30.9-33.6-27.3-55.2c3.7-21.6,22.3-39.8,43.9-43.1"/>
</g>
<g>
	
		<linearGradient id="SVGID_3_" gradientUnits="userSpaceOnUse" x1="-38.7191" y1="112.8735" x2="936.082" y2="112.8735" gradientTransform="matrix(0.9999 -1.701671e-02 1.701671e-02 0.9999 -1.9888 6.9801)">
		<stop  offset="0" style="stop-color:#ED2789"/>
		<stop  offset="0.5513" style="stop-color:#662752;stop-opacity:0.4487"/>
		<stop  offset="1" style="stop-color:#121028;stop-opacity:0"/>
	</linearGradient>
	<path class="st2" d="M6.9,98.9c25.4-9.7,48.5-25.1,67.3-44.7c7.5-7.8,14.5-16.4,23.7-22.1s21.8-7.6,30.7-1.5
		c15.5,10.5,14.2,39.2,32.3,43.7c4.5,1.1,9.4,0.3,13.8-1.3c19.1-6.7,31.5-24.8,47.9-36.5s44.6-13.8,52.5,4.8
		c4.8,11.2,1.2,27.6,12,33.1c7.8,4,16.8-1.3,23.9-6.5c22-16,44-31.9,66.1-47.9c8.3-6,19.7-12.1,27.9-6c14,10.2-0.9,40.7,15.5,46.2
		c3.5,1.2,7.4,0.5,11-0.4c20.3-4.9,39.6-14.1,56.2-26.9c11-8.5,21.2-18.8,34.3-23.6c13.1-4.8,30.6-1.6,36.4,11.1
		c5.8,12.7-1.8,30.4,8.3,40c6.8,6.6,18.3,5,26.4,0.1c10.9-6.7,18-18,27.3-26.6s23.9-14.6,34.7-7.9c15.3,9.5,12.1,36.7,28.4,44.5
		c13.2,6.3,27.9-5.6,35.8-17.9s14.9-27.3,28.9-31.5c2.6-0.8,5.5-1.1,7.9,0.2c2.5,1.4,3.8,4.2,4.6,6.9c3.8,12.6,3.3,29.6,15.4,34.7
		c9.3,3.9,19.8-2.6,25.9-10.6s10.3-17.7,18.1-24s21.6-7.2,26.3,1.7c2.9,5.6,1.2,12.7,4.1,18.3c4.9,9.2,19.3,7.7,26.8,0.6
		s10.7-17.6,16.1-26.4c5.4-8.9,15.3-16.9,25.2-14.1c18.7,33.7,17.5,74.4,15.9,112.9c-0.9,20.8-2.4,43.3-15.8,59.3
		c-13.9,16.5-36.8,21.7-58.2,24.5c-99.8,13.1-200.7-4.2-301.2-7.8c-178.6-6.4-358.1,30.3-535.5,8.4c-11.8-1.5-23.8-3.3-34.3-8.8
		c-19.4-10.2-30.9-33.6-27.3-55.2c3.7-21.6,22.3-39.8,43.9-43.1"/>
</g>
<g>
	
		<linearGradient id="SVGID_4_" gradientUnits="userSpaceOnUse" x1="-53.0999" y1="144.1718" x2="921.7012" y2="144.1718" gradientTransform="matrix(0.9999 -1.701671e-02 1.701671e-02 0.9999 -1.9888 6.9801)">
		<stop  offset="0" style="stop-color:#ED2789"/>
		<stop  offset="0.5513" style="stop-color:#662752;stop-opacity:0.4487"/>
		<stop  offset="1" style="stop-color:#121028;stop-opacity:0"/>
	</linearGradient>
	<path class="st3" d="M-6.9,130.4c25.4-9.7,48.5-25.1,67.3-44.7c7.5-7.8,14.5-16.4,23.7-22.1s21.8-7.6,30.7-1.5
		c15.5,10.5,14.2,39.2,32.3,43.7c4.5,1.1,9.4,0.3,13.8-1.3c19.1-6.7,31.5-24.8,47.9-36.5s44.6-13.8,52.5,4.8
		c4.8,11.2,1.2,27.6,12,33.1c7.8,4,16.8-1.3,23.9-6.5c22-16,44-31.9,66.1-47.9c8.3-6,19.7-12.1,27.9-6c14,10.2-0.9,40.7,15.5,46.2
		c3.5,1.2,7.4,0.5,11-0.4c20.3-4.9,39.6-14.1,56.2-26.9c11-8.5,21.2-18.8,34.3-23.6c13.1-4.8,30.6-1.6,36.4,11.1
		c5.8,12.7-1.8,30.4,8.3,40c6.8,6.6,18.3,5,26.4,0.1c10.9-6.7,18-18,27.3-26.6c9.4-8.6,23.9-14.6,34.7-7.9
		c15.3,9.5,12.1,36.7,28.4,44.5c13.2,6.3,27.9-5.6,35.8-17.9s14.9-27.3,28.9-31.5c2.6-0.8,5.5-1.1,7.9,0.2c2.5,1.4,3.8,4.2,4.6,6.9
		c3.8,12.6,3.3,29.6,15.4,34.7c9.3,3.9,19.8-2.6,25.9-10.6c6.2-7.9,10.3-17.7,18.1-24c7.8-6.3,21.6-7.2,26.3,1.7
		c2.9,5.6,1.2,12.7,4.1,18.3c4.9,9.2,19.3,7.7,26.8,0.6c7.5-7.1,10.7-17.6,16.1-26.4c5.4-8.9,15.3-16.9,25.2-14.1
		c18.7,33.7,17.5,74.4,15.9,112.9c-0.9,20.8-2.4,43.3-15.8,59.3c-13.9,16.5-36.8,21.7-58.2,24.5c-99.8,13.1-200.7-4.2-301.2-7.8
		c-178.6-6.4-358.1,30.3-535.5,8.4c-11.8-1.5-23.8-3.3-34.3-8.8c-19.4-10.2-30.9-33.6-27.3-55.2c3.7-21.6,22.3-39.8,43.9-43.1"/>
</g>
<g>
	
		<linearGradient id="SVGID_5_" gradientUnits="userSpaceOnUse" x1="-53.3748" y1="160.3233" x2="921.4263" y2="160.3233" gradientTransform="matrix(0.9999 -1.701671e-02 1.701671e-02 0.9999 -1.9888 6.9801)">
		<stop  offset="0" style="stop-color:#ED2789"/>
		<stop  offset="0.5513" style="stop-color:#662752;stop-opacity:0.4487"/>
		<stop  offset="1" style="stop-color:#121028;stop-opacity:0"/>
	</linearGradient>
	<path class="st4" d="M-6.9,146.6c25.4-9.7,48.5-25.1,67.3-44.7c7.5-7.8,14.5-16.4,23.7-22.1c9.3-5.6,21.8-7.6,30.7-1.5
		c15.5,10.5,14.2,39.2,32.3,43.7c4.5,1.1,9.4,0.3,13.8-1.3c19.1-6.7,31.5-24.8,47.9-36.5s44.6-13.8,52.5,4.8
		c4.8,11.2,1.2,27.6,12,33.1c7.8,4,16.8-1.3,23.9-6.5c22-16,44-31.9,66.1-47.9c8.3-6,19.7-12.1,27.9-6c14,10.2-0.9,40.7,15.5,46.2
		c3.5,1.2,7.4,0.5,11-0.4c20.3-4.9,39.6-14.1,56.2-26.9c11-8.5,21.2-18.8,34.3-23.6c13.1-4.8,30.6-1.6,36.4,11.1
		c5.8,12.7-1.8,30.4,8.3,40c6.8,6.6,18.3,5,26.4,0.1c10.9-6.7,18-18,27.3-26.6c9.4-8.6,23.9-14.6,34.7-7.9
		c15.3,9.5,12.1,36.7,28.4,44.5c13.2,6.3,27.9-5.6,35.8-17.9s14.9-27.3,28.9-31.5c2.6-0.8,5.5-1.1,7.9,0.2c2.5,1.4,3.8,4.2,4.6,6.9
		c3.8,12.6,3.3,29.6,15.4,34.7c9.3,3.9,19.8-2.6,25.9-10.6c6.2-7.9,10.3-17.7,18.1-24c7.8-6.3,21.6-7.2,26.3,1.7
		c2.9,5.6,1.2,12.7,4.1,18.3c4.9,9.2,19.3,7.7,26.8,0.6c7.5-7.1,10.7-17.6,16.1-26.4c5.4-8.9,15.3-16.9,25.2-14.1
		c18.7,33.7,17.5,74.4,15.9,112.9c-0.9,20.8-2.4,43.3-15.8,59.3c-13.9,16.5-36.8,21.7-58.2,24.5c-99.8,13.1-200.7-4.2-301.2-7.8
		c-178.6-6.4-358.1,30.3-535.5,8.4c-11.8-1.5-23.8-3.3-34.3-8.8c-19.4-10.2-30.9-33.6-27.3-55.2c3.7-21.6,22.3-39.8,43.9-43.1"/>
</g>
<g>
	
		<linearGradient id="SVGID_6_" gradientUnits="userSpaceOnUse" x1="-88.2699" y1="167.4228" x2="886.5312" y2="167.4228" gradientTransform="matrix(0.9999 -1.701671e-02 1.701671e-02 0.9999 -1.9888 6.9801)">
		<stop  offset="0" style="stop-color:#ED2789"/>
		<stop  offset="0.5513" style="stop-color:#662752;stop-opacity:0.4487"/>
		<stop  offset="1" style="stop-color:#121028;stop-opacity:0"/>
	</linearGradient>
	<path class="st5" d="M-41.7,154.3c25.4-9.7,48.5-25.1,67.3-44.7c7.5-7.8,14.5-16.4,23.7-22.1c9.3-5.6,21.8-7.6,30.7-1.5
		c15.5,10.5,14.2,39.2,32.3,43.7c4.5,1.1,9.4,0.3,13.8-1.3c19.1-6.7,31.5-24.8,47.9-36.5s44.6-13.8,52.5,4.8
		c4.8,11.2,1.2,27.6,12,33.1c7.8,4,16.8-1.3,23.9-6.5c22-16,44-31.9,66.1-47.9c8.3-6,19.7-12.1,27.9-6c14,10.2-0.9,40.7,15.5,46.2
		c3.5,1.2,7.4,0.5,11-0.4c20.3-4.9,39.6-14.1,56.2-26.9c11-8.5,21.2-18.8,34.3-23.6c13.1-4.8,30.6-1.6,36.4,11.1
		c5.8,12.7-1.8,30.4,8.3,40c6.8,6.6,18.3,5,26.4,0.1c10.9-6.7,18-18,27.3-26.6c9.4-8.6,23.9-14.6,34.7-7.9
		c15.3,9.5,12.1,36.7,28.4,44.5c13.2,6.3,27.9-5.6,35.8-17.9s14.9-27.3,28.9-31.5c2.6-0.8,5.5-1.1,7.9,0.2c2.5,1.4,3.8,4.2,4.6,6.9
		c3.8,12.6,3.3,29.6,15.4,34.7c9.3,3.9,19.8-2.6,25.9-10.6c6.2-7.9,10.3-17.7,18.1-24c7.8-6.3,21.6-7.2,26.3,1.7
		c2.9,5.6,1.2,12.7,4.1,18.3c4.9,9.2,19.3,7.7,26.8,0.6c7.5-7.1,10.7-17.6,16.1-26.4s15.3-16.9,25.2-14.1
		c18.7,33.7,17.5,74.4,15.9,112.9c-0.9,20.8-2.4,43.3-15.8,59.3c-13.9,16.5-36.8,21.7-58.2,24.5c-99.8,13.1-200.7-4.2-301.2-7.8
		c-178.6-6.4-358.1,30.3-535.5,8.4c-11.8-1.5-23.8-3.3-34.3-8.8c-19.4-10.2-30.9-33.6-27.3-55.2c3.7-21.6,22.3-39.8,43.9-43.1"/>
</g>
</svg>
